<svg width="670" height="576" viewBox="0 0 670 576" fill="none" xmlns="http://www.w3.org/2000/svg">
<path opacity="0.4" fillRule="evenodd" clipRule="evenodd" d="M669.121 300.622C667.031 349.636 601.525 372.609 583.167 418.103C563.942 465.746 606.579 545.462 560.864 568.906C507.256 596.397 449.718 522.629 389.707 517.314C356.107 514.338 327.297 546.541 293.59 545.234C259.419 543.909 230.168 522.738 198.472 509.901C162.852 495.474 124.223 488.008 93.9255 464.366C60.0966 437.967 29.352 405.507 13.5632 365.608C-2.9037 323.995 -1.26252 277.876 2.48125 233.28C6.49462 185.472 11.1211 135.845 36.2806 94.9963C61.8817 53.4302 97.4011 5.55005 145.942 0.356483C200.636 -5.49552 239.981 62.5735 294.781 67.3382C336.017 70.9235 369.243 13.3035 409.418 23.2649C448.592 32.9781 455.7 88.847 486.538 114.885C518.57 141.931 563.992 148.696 593.382 178.592C627.314 213.111 671.184 252.262 669.121 300.622Z" fill="#D73B3B"/>
<circle cx="335.5" cy="252.5" r="55.5" fill="url(#paint0_radial_0_1)"/>
<circle cx="336" cy="252" r="36.5" fill="#F2F2F2" stroke="#EBEBEB"/>
<path fillRule="evenodd" clipRule="evenodd" d="M339.56 257.007C341.193 257.126 341.731 259.028 342.715 260.267C343.638 261.429 345.236 262.388 344.971 263.82C344.698 265.285 342.937 265.863 341.547 266.558C340.051 267.305 338.5 268.413 336.919 267.842C335.244 267.237 334.281 265.527 334.034 263.845C333.809 262.319 334.741 260.981 335.73 259.758C336.754 258.49 337.879 256.884 339.56 257.007Z" fill="#C2B790"/>
<path fillRule="evenodd" clipRule="evenodd" d="M348.477 241.004C349.165 241.076 349.539 242.232 349.979 243.117C350.435 244.035 351.079 244.885 350.992 246.069C350.898 247.345 350.277 248.388 349.556 248.846C348.896 249.265 348.211 248.75 347.573 248.24C346.935 247.729 346.223 247.18 346.045 246.037C345.862 244.867 346.265 243.719 346.721 242.777C347.172 241.842 347.759 240.929 348.477 241.004Z" fill="#C2B790"/>
<path fillRule="evenodd" clipRule="evenodd" d="M328.854 241.003C330.368 240.948 331.883 241.712 332.66 242.951C333.353 244.054 332.848 245.404 332.371 246.607C331.992 247.563 331.331 248.391 330.344 248.79C329.412 249.166 328.382 248.998 327.465 248.589C326.533 248.174 325.768 247.511 325.413 246.591C324.984 245.478 324.762 244.234 325.391 243.212C326.131 242.011 327.393 241.055 328.854 241.003Z" fill="#C2B790"/>
<path d="M260 285.02V286.5H251.058L248.822 305H234.104L236.153 286.5H192L258.696 194L260 194.74C241.618 220.147 219.945 250.24 194.981 285.02H236.34L242.488 233.96H257.392L251.244 285.02H260Z" fill="#242536"/>
<path d="M479 285.02V286.5H470.058L467.822 305H453.104L455.153 286.5H411L477.696 194L479 194.74C460.618 220.147 438.945 250.24 413.981 285.02H455.34L461.488 233.96H476.392L470.244 285.02H479Z" fill="#242536"/>
<path d="M90.872 375H90.56V358.2H91.376L101.36 373.728V358.2H101.672V375H99.92L90.872 361.08V375ZM114.099 375C113.011 375 112.267 374.792 111.867 374.376C111.499 374.024 111.315 373.72 111.315 373.464V372.96C110.531 374.384 109.275 375.096 107.547 375.096C105.531 375.096 104.387 374.184 104.115 372.36C104.083 372.168 104.067 371.976 104.067 371.784C104.067 371.576 104.099 371.352 104.163 371.112C104.227 370.872 104.411 370.608 104.715 370.32C105.323 369.744 106.659 369.392 108.723 369.264C109.235 369.216 109.707 369.192 110.139 369.192C110.571 369.192 110.963 369.208 111.315 369.24V365.256C111.283 365.24 111.283 365.168 111.315 365.04C111.347 364.896 111.315 364.72 111.219 364.512C111.139 364.288 111.027 364.072 110.883 363.864C110.739 363.656 110.483 363.48 110.115 363.336C109.747 363.176 109.267 363.096 108.675 363.096C108.083 363.096 107.387 363.208 106.587 363.432C105.803 363.64 105.227 363.848 104.859 364.056L104.763 363.888C106.187 363.232 107.635 362.904 109.107 362.904C110.755 362.904 111.843 363.2 112.371 363.792C112.787 364.256 112.995 364.744 112.995 365.256V373.296C112.995 373.76 113.083 374.12 113.259 374.376C113.451 374.616 113.643 374.744 113.835 374.76L114.099 374.808H114.843V375H114.099ZM107.931 374.904C108.779 374.904 109.539 374.616 110.211 374.04C110.899 373.448 111.267 372.88 111.315 372.336V369.432C110.883 369.4 110.443 369.384 109.995 369.384C109.563 369.384 109.131 369.408 108.699 369.456C107.483 369.6 106.691 369.872 106.323 370.272C105.955 370.672 105.771 371.224 105.771 371.928C105.771 372.056 105.779 372.2 105.795 372.36C105.939 374.056 106.651 374.904 107.931 374.904ZM104.955 361.032L104.763 360.96C104.843 360.48 105.051 360.048 105.387 359.664C105.499 359.536 105.683 359.448 105.939 359.4L106.515 359.304C106.787 359.24 107.283 359.296 108.003 359.472C108.723 359.632 109.371 359.776 109.947 359.904C110.571 360.048 111.139 360.12 111.651 360.12C112.163 360.12 112.499 360.056 112.659 359.928C112.819 359.784 112.947 359.528 113.043 359.16L113.259 359.208C113.083 360.072 112.755 360.632 112.275 360.888C112.083 361 111.907 361.056 111.747 361.056C111.587 361.056 111.427 361.048 111.267 361.032C110.899 361.032 110.467 360.952 109.971 360.792C108.579 360.392 107.427 360.192 106.515 360.192C105.619 360.192 105.099 360.472 104.955 361.032ZM122.179 375.096C120.499 375.096 119.131 374.616 118.075 373.656C117.019 372.696 116.491 371.216 116.491 369.216C116.491 367.216 117.035 365.664 118.123 364.56C119.227 363.456 120.619 362.904 122.299 362.904C123.995 362.904 125.371 363.384 126.427 364.344C127.483 365.304 128.011 366.784 128.011 368.784C128.011 370.784 127.459 372.336 126.355 373.44C125.267 374.544 123.875 375.096 122.179 375.096ZM122.347 363.096C121.131 363.096 120.123 363.64 119.323 364.728C118.523 365.8 118.123 367.304 118.123 369.24C118.123 371.16 118.491 372.584 119.227 373.512C119.963 374.44 120.939 374.904 122.155 374.904C123.371 374.904 124.379 374.368 125.179 373.296C125.979 372.208 126.379 370.704 126.379 368.784C126.379 366.848 126.011 365.416 125.275 364.488C124.539 363.56 123.563 363.096 122.347 363.096ZM138.725 369.144C138.725 371.128 139.069 372.584 139.757 373.512C140.461 374.44 141.381 374.904 142.517 374.904C144.117 374.904 145.541 374.664 146.789 374.184L146.861 374.352C145.581 374.848 144.133 375.096 142.517 375.096C140.917 375.096 139.613 374.616 138.605 373.656C137.597 372.696 137.093 371.216 137.093 369.216C137.093 367.216 137.621 365.664 138.677 364.56C139.733 363.456 141.077 362.904 142.709 362.904C144.021 362.904 145.125 363.296 146.021 364.08C146.917 364.864 147.365 366.024 147.365 367.56C147.365 367.64 147.365 367.72 147.365 367.8H138.797C138.749 368.232 138.725 368.68 138.725 369.144ZM145.733 367.608C145.717 366.072 145.421 364.936 144.845 364.2C144.269 363.464 143.525 363.096 142.613 363.096C141.701 363.096 140.885 363.496 140.165 364.296C139.461 365.096 139.013 366.2 138.821 367.608H145.733ZM158.303 375C157.647 375 157.143 374.856 156.791 374.568C156.455 374.28 156.279 373.992 156.263 373.704L156.239 373.296V365.76C156.239 364.496 155.911 363.688 155.255 363.336C154.919 363.176 154.503 363.096 154.007 363.096C152.983 363.096 152.063 363.504 151.247 364.32C150.431 365.12 150.023 365.84 150.023 366.48V375H148.343V363H150.023V365.736C150.295 365.048 150.799 364.408 151.535 363.816C152.271 363.208 153.079 362.904 153.959 362.904C154.839 362.904 155.551 362.992 156.095 363.168C156.655 363.328 157.063 363.56 157.319 363.864C157.719 364.36 157.919 365 157.919 365.784V373.296C157.919 373.76 158.007 374.12 158.183 374.376C158.375 374.616 158.567 374.744 158.759 374.76L159.023 374.808H159.767V375H158.303ZM166.357 363.096C165.221 363.096 164.269 363.64 163.501 364.728C162.749 365.816 162.373 367.32 162.373 369.24C162.373 371.16 162.717 372.584 163.405 373.512C164.109 374.44 165.029 374.904 166.165 374.904C167.589 374.904 168.853 374.664 169.957 374.184L170.029 374.352C168.893 374.848 167.565 375.096 166.045 375.096C164.525 375.096 163.261 374.616 162.253 373.656C161.245 372.696 160.741 371.216 160.741 369.216C160.741 367.216 161.269 365.664 162.325 364.56C163.381 363.456 164.725 362.904 166.357 362.904C167.269 362.904 168.109 363.112 168.877 363.528C169.661 363.944 170.237 364.576 170.605 365.424H169.069C168.829 364.64 168.461 364.056 167.965 363.672C167.485 363.288 166.949 363.096 166.357 363.096ZM177.515 375.096C175.835 375.096 174.467 374.616 173.411 373.656C172.355 372.696 171.827 371.216 171.827 369.216C171.827 367.216 172.371 365.664 173.459 364.56C174.563 363.456 175.955 362.904 177.635 362.904C179.331 362.904 180.707 363.384 181.763 364.344C182.819 365.304 183.347 366.784 183.347 368.784C183.347 370.784 182.795 372.336 181.691 373.44C180.603 374.544 179.211 375.096 177.515 375.096ZM177.683 363.096C176.467 363.096 175.459 363.64 174.659 364.728C173.859 365.8 173.459 367.304 173.459 369.24C173.459 371.16 173.827 372.584 174.563 373.512C175.299 374.44 176.275 374.904 177.491 374.904C178.707 374.904 179.715 374.368 180.515 373.296C181.315 372.208 181.715 370.704 181.715 368.784C181.715 366.848 181.347 365.416 180.611 364.488C179.875 363.56 178.899 363.096 177.683 363.096ZM194.748 375C194.092 375 193.588 374.856 193.236 374.568C192.9 374.28 192.724 373.992 192.708 373.704L192.684 373.296V365.76C192.684 364.496 192.356 363.688 191.7 363.336C191.364 363.176 190.948 363.096 190.452 363.096C189.428 363.096 188.508 363.504 187.692 364.32C186.876 365.12 186.468 365.84 186.468 366.48V375H184.788V363H186.468V365.736C186.74 365.048 187.244 364.408 187.98 363.816C188.716 363.208 189.524 362.904 190.404 362.904C191.284 362.904 191.996 362.992 192.54 363.168C193.1 363.328 193.508 363.56 193.764 363.864C194.164 364.36 194.364 365 194.364 365.784V373.296C194.364 373.76 194.452 374.12 194.628 374.376C194.82 374.616 195.012 374.744 195.204 374.76L195.468 374.808H196.212V375H194.748ZM197.301 363.192V363H197.805V360.6H199.485V363H203.157V363.192H199.485V371.928C199.485 372.968 199.597 373.72 199.821 374.184C200.061 374.648 200.549 374.88 201.285 374.88C202.037 374.88 202.797 374.728 203.565 374.424L203.637 374.616C202.837 374.92 201.917 375.072 200.877 375.072C199.853 375.072 199.085 374.864 198.573 374.448C198.061 374.016 197.805 373.168 197.805 371.904V363.192H197.301ZM209.294 364.032V363.528C208.574 363.816 207.918 364.4 207.326 365.28C206.734 366.144 206.422 366.96 206.39 367.728V375H204.71V363H206.39V366.816C206.646 365.888 207.134 365.016 207.854 364.2C208.574 363.368 209.39 362.936 210.302 362.904H210.398C210.718 362.904 210.982 363.016 211.19 363.24C211.414 363.448 211.526 363.712 211.526 364.032C211.526 364.352 211.414 364.616 211.19 364.824C210.982 365.032 210.718 365.136 210.398 365.136C210.078 365.136 209.814 365.032 209.606 364.824C209.398 364.616 209.294 364.352 209.294 364.032ZM222.52 375C221.432 375 220.688 374.792 220.288 374.376C219.92 374.024 219.736 373.72 219.736 373.464V372.96C218.952 374.384 217.696 375.096 215.968 375.096C213.952 375.096 212.808 374.184 212.536 372.36C212.504 372.168 212.488 371.976 212.488 371.784C212.488 371.576 212.52 371.352 212.584 371.112C212.648 370.872 212.832 370.608 213.136 370.32C213.744 369.744 215.08 369.392 217.144 369.264C217.656 369.216 218.128 369.192 218.56 369.192C218.992 369.192 219.384 369.208 219.736 369.24V365.256C219.704 365.24 219.704 365.168 219.736 365.04C219.768 364.896 219.736 364.72 219.64 364.512C219.56 364.288 219.448 364.072 219.304 363.864C219.16 363.656 218.904 363.48 218.536 363.336C218.168 363.176 217.688 363.096 217.096 363.096C216.504 363.096 215.808 363.208 215.008 363.432C214.224 363.64 213.648 363.848 213.28 364.056L213.184 363.888C214.608 363.232 216.056 362.904 217.528 362.904C219.176 362.904 220.264 363.2 220.792 363.792C221.208 364.256 221.416 364.744 221.416 365.256V373.296C221.416 373.76 221.504 374.12 221.68 374.376C221.872 374.616 222.064 374.744 222.256 374.76L222.52 374.808H223.264V375H222.52ZM216.352 374.904C217.2 374.904 217.96 374.616 218.632 374.04C219.32 373.448 219.688 372.88 219.736 372.336V369.432C219.304 369.4 218.864 369.384 218.416 369.384C217.984 369.384 217.552 369.408 217.12 369.456C215.904 369.6 215.112 369.872 214.744 370.272C214.376 370.672 214.192 371.224 214.192 371.928C214.192 372.056 214.2 372.2 214.216 372.36C214.36 374.056 215.072 374.904 216.352 374.904ZM239.057 365.76C239.057 364.784 238.929 364.096 238.673 363.696C238.417 363.296 237.929 363.096 237.209 363.096C236.249 363.096 235.393 363.496 234.641 364.296C233.905 365.096 233.537 365.816 233.537 366.456V375H231.857V365.76C231.857 364.784 231.729 364.096 231.473 363.696C231.217 363.296 230.673 363.096 229.841 363.096C229.009 363.096 228.217 363.48 227.465 364.248C226.729 365.016 226.329 365.728 226.265 366.384V375H224.585V363H226.265V365.712C226.521 365.024 226.993 364.384 227.681 363.792C228.369 363.2 229.137 362.904 229.985 362.904C230.833 362.904 231.505 362.984 232.001 363.144C232.513 363.288 232.873 363.52 233.081 363.84C233.289 364.16 233.417 364.44 233.465 364.68C233.513 364.92 233.537 365.256 233.537 365.688C233.793 365 234.257 364.368 234.929 363.792C235.601 363.2 236.321 362.904 237.089 362.904C237.857 362.904 238.473 362.968 238.937 363.096C239.401 363.224 239.745 363.368 239.969 363.528C240.209 363.688 240.385 363.92 240.497 364.224C240.625 364.528 240.697 364.776 240.713 364.968C240.729 365.16 240.737 365.432 240.737 365.784V373.296C240.737 373.76 240.825 374.12 241.001 374.376C241.193 374.616 241.385 374.744 241.577 374.76L241.841 374.808H242.585V375H241.121C240.465 375 239.961 374.856 239.609 374.568C239.273 374.28 239.097 373.992 239.081 373.704L239.057 373.296V365.76ZM248.742 375.096C247.062 375.096 245.694 374.616 244.638 373.656C243.582 372.696 243.054 371.216 243.054 369.216C243.054 367.216 243.598 365.664 244.686 364.56C245.79 363.456 247.182 362.904 248.862 362.904C250.558 362.904 251.934 363.384 252.99 364.344C254.046 365.304 254.574 366.784 254.574 368.784C254.574 370.784 254.022 372.336 252.918 373.44C251.83 374.544 250.438 375.096 248.742 375.096ZM248.91 363.096C247.694 363.096 246.686 363.64 245.886 364.728C245.086 365.8 244.686 367.304 244.686 369.24C244.686 371.16 245.054 372.584 245.79 373.512C246.526 374.44 247.502 374.904 248.718 374.904C249.934 374.904 250.942 374.368 251.742 373.296C252.542 372.208 252.942 370.704 252.942 368.784C252.942 366.848 252.574 365.416 251.838 364.488C251.102 363.56 250.126 363.096 248.91 363.096ZM263.023 363.84C262.767 363.632 262.351 363.456 261.775 363.312C261.215 363.168 260.791 363.096 260.503 363.096C260.215 363.096 260.047 363.096 259.999 363.096C259.135 363.112 258.511 363.336 258.127 363.768C257.743 364.184 257.551 364.656 257.551 365.184C257.551 365.712 257.719 366.16 258.055 366.528C258.391 366.88 258.807 367.16 259.303 367.368C259.815 367.56 260.359 367.784 260.935 368.04C261.527 368.296 262.071 368.56 262.567 368.832C263.079 369.088 263.503 369.472 263.839 369.984C264.175 370.48 264.343 371.104 264.343 371.856C264.343 372.608 264.079 373.248 263.551 373.776C263.023 374.304 262.431 374.656 261.775 374.832C261.135 375.008 260.439 375.096 259.687 375.096C258.055 375.096 256.831 374.736 256.015 374.016L256.159 373.872C256.479 374.176 256.951 374.424 257.575 374.616C258.215 374.808 258.831 374.904 259.423 374.904C260.367 374.904 261.143 374.648 261.751 374.136C262.375 373.608 262.687 372.96 262.687 372.192C262.687 371.408 262.455 370.784 261.991 370.32C261.527 369.84 260.959 369.472 260.287 369.216C259.631 368.944 258.967 368.68 258.295 368.424C257.623 368.152 257.055 367.784 256.591 367.32C256.127 366.84 255.895 366.288 255.895 365.664C255.895 365.04 256.039 364.536 256.327 364.152C256.615 363.752 256.999 363.472 257.479 363.312C258.295 363.04 259.111 362.904 259.927 362.904C261.303 362.904 262.375 363.16 263.143 363.672L263.023 363.84ZM279 375.096C277.32 375.096 275.952 374.616 274.896 373.656C273.84 372.696 273.312 371.216 273.312 369.216C273.312 367.216 273.856 365.664 274.944 364.56C276.048 363.456 277.44 362.904 279.12 362.904C280.816 362.904 282.192 363.384 283.248 364.344C284.304 365.304 284.832 366.784 284.832 368.784C284.832 370.784 284.28 372.336 283.176 373.44C282.088 374.544 280.696 375.096 279 375.096ZM279.168 363.096C277.952 363.096 276.944 363.64 276.144 364.728C275.344 365.8 274.944 367.304 274.944 369.24C274.944 371.16 275.312 372.584 276.048 373.512C276.784 374.44 277.76 374.904 278.976 374.904C280.192 374.904 281.2 374.368 282 373.296C282.8 372.208 283.2 370.704 283.2 368.784C283.2 366.848 282.832 365.416 282.096 364.488C281.36 363.56 280.384 363.096 279.168 363.096ZM293.913 369.432C293.913 367.352 294.417 365.744 295.425 364.608C296.433 363.472 297.945 362.904 299.961 362.904C300.905 362.904 301.857 363.144 302.817 363.624V363H304.497V381H302.817V372.912C302.513 373.472 302.009 373.968 301.305 374.4C300.601 374.832 299.769 375.048 298.809 375.048C295.545 374.968 293.913 373.096 293.913 369.432ZM298.833 374.856C299.905 374.856 300.825 374.568 301.593 373.992C302.361 373.416 302.769 372.848 302.817 372.288V363.84C301.681 363.344 300.705 363.096 299.889 363.096C298.465 363.096 297.393 363.656 296.673 364.776C295.953 365.88 295.593 367.432 295.593 369.432C295.593 373.048 296.673 374.856 298.833 374.856ZM308.578 372.24C308.578 373.504 308.914 374.312 309.586 374.664C309.906 374.824 310.314 374.904 310.81 374.904C311.818 374.904 312.714 374.52 313.498 373.752C314.298 372.984 314.73 372.272 314.794 371.616V363H316.474V373.296C316.474 373.76 316.562 374.12 316.738 374.376C316.93 374.616 317.122 374.744 317.314 374.76L317.578 374.808H318.322V375H316.858C316.202 375 315.698 374.856 315.346 374.568C315.01 374.28 314.834 373.992 314.818 373.704L314.794 373.296V372.264C314.506 372.952 313.994 373.6 313.258 374.208C312.522 374.8 311.714 375.096 310.834 375.096C309.97 375.096 309.258 375.016 308.698 374.856C308.154 374.68 307.762 374.44 307.521 374.136C307.106 373.64 306.898 373 306.898 372.216V363H308.578V372.24ZM321.162 369.144C321.162 371.128 321.506 372.584 322.194 373.512C322.898 374.44 323.818 374.904 324.954 374.904C326.554 374.904 327.978 374.664 329.226 374.184L329.298 374.352C328.018 374.848 326.57 375.096 324.954 375.096C323.354 375.096 322.05 374.616 321.042 373.656C320.034 372.696 319.53 371.216 319.53 369.216C319.53 367.216 320.058 365.664 321.114 364.56C322.17 363.456 323.514 362.904 325.146 362.904C326.458 362.904 327.562 363.296 328.458 364.08C329.354 364.864 329.802 366.024 329.802 367.56C329.802 367.64 329.802 367.72 329.802 367.8H321.234C321.186 368.232 321.162 368.68 321.162 369.144ZM328.17 367.608C328.154 366.072 327.858 364.936 327.282 364.2C326.706 363.464 325.962 363.096 325.05 363.096C324.138 363.096 323.322 363.496 322.602 364.296C321.898 365.096 321.45 366.2 321.258 367.608H328.17ZM347.535 363.144L347.679 363C347.743 363.032 347.823 363.128 347.919 363.288C348.031 363.448 348.095 363.592 348.111 363.72C348.143 363.848 348.159 363.968 348.159 364.08C348.159 364.512 348.063 364.952 347.871 365.4L343.263 375H343.023L338.559 363H340.239L343.911 372.936L347.631 365.4C347.823 365.064 347.919 364.664 347.919 364.2C347.919 363.736 347.791 363.384 347.535 363.144ZM355.171 375.096C353.491 375.096 352.123 374.616 351.067 373.656C350.011 372.696 349.483 371.216 349.483 369.216C349.483 367.216 350.027 365.664 351.115 364.56C352.219 363.456 353.611 362.904 355.291 362.904C356.987 362.904 358.363 363.384 359.419 364.344C360.475 365.304 361.003 366.784 361.003 368.784C361.003 370.784 360.451 372.336 359.347 373.44C358.259 374.544 356.867 375.096 355.171 375.096ZM355.339 363.096C354.123 363.096 353.115 363.64 352.315 364.728C351.515 365.8 351.115 367.304 351.115 369.24C351.115 371.16 351.483 372.584 352.219 373.512C352.955 374.44 353.931 374.904 355.147 374.904C356.363 374.904 357.371 374.368 358.171 373.296C358.971 372.208 359.371 370.704 359.371 368.784C359.371 366.848 359.003 365.416 358.267 364.488C357.531 363.56 356.555 363.096 355.339 363.096ZM368.529 363.096C367.393 363.096 366.441 363.64 365.673 364.728C364.921 365.816 364.545 367.32 364.545 369.24C364.545 371.16 364.889 372.584 365.577 373.512C366.281 374.44 367.201 374.904 368.337 374.904C369.761 374.904 371.025 374.664 372.129 374.184L372.201 374.352C371.065 374.848 369.737 375.096 368.217 375.096C366.697 375.096 365.433 374.616 364.425 373.656C363.417 372.696 362.913 371.216 362.913 369.216C362.913 367.216 363.441 365.664 364.497 364.56C365.553 363.456 366.897 362.904 368.529 362.904C369.441 362.904 370.281 363.112 371.049 363.528C371.833 363.944 372.409 364.576 372.777 365.424H371.241C371.001 364.64 370.633 364.056 370.137 363.672C369.657 363.288 369.121 363.096 368.529 363.096ZM375.865 369.144C375.865 371.128 376.209 372.584 376.897 373.512C377.601 374.44 378.521 374.904 379.657 374.904C381.257 374.904 382.681 374.664 383.929 374.184L384.001 374.352C382.721 374.848 381.273 375.096 379.657 375.096C378.057 375.096 376.753 374.616 375.745 373.656C374.737 372.696 374.233 371.216 374.233 369.216C374.233 367.216 374.761 365.664 375.817 364.56C376.873 363.456 378.217 362.904 379.849 362.904C381.161 362.904 382.265 363.296 383.161 364.08C384.057 364.864 384.505 366.024 384.505 367.56C384.505 367.64 384.505 367.72 384.505 367.8H375.937C375.889 368.232 375.865 368.68 375.865 369.144ZM382.873 367.608C382.857 366.072 382.561 364.936 381.985 364.2C381.409 363.464 380.665 363.096 379.753 363.096C378.841 363.096 378.025 363.496 377.305 364.296C376.601 365.096 376.153 366.2 375.961 367.608H382.873ZM382.897 360.24L382.393 360.72L379.489 357.6L376.705 360.6L376.537 360.48L379.825 357L382.897 360.24ZM395.014 369.144C395.014 371.128 395.358 372.584 396.046 373.512C396.75 374.44 397.67 374.904 398.806 374.904C400.406 374.904 401.83 374.664 403.078 374.184L403.15 374.352C401.87 374.848 400.422 375.096 398.806 375.096C397.206 375.096 395.902 374.616 394.894 373.656C393.886 372.696 393.382 371.216 393.382 369.216C393.382 367.216 393.91 365.664 394.966 364.56C396.022 363.456 397.366 362.904 398.998 362.904C400.31 362.904 401.414 363.296 402.31 364.08C403.206 364.864 403.654 366.024 403.654 367.56C403.654 367.64 403.654 367.72 403.654 367.8H395.086C395.038 368.232 395.014 368.68 395.014 369.144ZM402.022 367.608C402.006 366.072 401.71 364.936 401.134 364.2C400.558 363.464 399.814 363.096 398.902 363.096C397.99 363.096 397.174 363.496 396.454 364.296C395.75 365.096 395.302 366.2 395.11 367.608H402.022ZM412.366 363.84C412.11 363.632 411.694 363.456 411.118 363.312C410.558 363.168 410.134 363.096 409.846 363.096C409.558 363.096 409.39 363.096 409.342 363.096C408.478 363.112 407.854 363.336 407.47 363.768C407.086 364.184 406.894 364.656 406.894 365.184C406.894 365.712 407.062 366.16 407.398 366.528C407.734 366.88 408.15 367.16 408.646 367.368C409.158 367.56 409.702 367.784 410.278 368.04C410.87 368.296 411.414 368.56 411.91 368.832C412.422 369.088 412.846 369.472 413.182 369.984C413.518 370.48 413.686 371.104 413.686 371.856C413.686 372.608 413.422 373.248 412.894 373.776C412.366 374.304 411.774 374.656 411.118 374.832C410.478 375.008 409.782 375.096 409.03 375.096C407.398 375.096 406.174 374.736 405.358 374.016L405.502 373.872C405.822 374.176 406.294 374.424 406.918 374.616C407.558 374.808 408.174 374.904 408.766 374.904C409.71 374.904 410.486 374.648 411.094 374.136C411.718 373.608 412.03 372.96 412.03 372.192C412.03 371.408 411.798 370.784 411.334 370.32C410.87 369.84 410.302 369.472 409.63 369.216C408.974 368.944 408.31 368.68 407.638 368.424C406.966 368.152 406.398 367.784 405.934 367.32C405.47 366.84 405.238 366.288 405.238 365.664C405.238 365.04 405.382 364.536 405.67 364.152C405.958 363.752 406.342 363.472 406.822 363.312C407.638 363.04 408.454 362.904 409.27 362.904C410.646 362.904 411.718 363.16 412.486 363.672L412.366 363.84ZM415.363 363.192V363H415.867V360.6H417.547V363H421.219V363.192H417.547V371.928C417.547 372.968 417.659 373.72 417.883 374.184C418.123 374.648 418.611 374.88 419.347 374.88C420.099 374.88 420.859 374.728 421.627 374.424L421.699 374.616C420.899 374.92 419.979 375.072 418.939 375.072C417.915 375.072 417.147 374.864 416.635 374.448C416.123 374.016 415.867 373.168 415.867 371.904V363.192H415.363ZM432.942 375C431.854 375 431.11 374.792 430.71 374.376C430.342 374.024 430.158 373.72 430.158 373.464V372.96C429.374 374.384 428.118 375.096 426.39 375.096C424.374 375.096 423.23 374.184 422.958 372.36C422.926 372.168 422.91 371.976 422.91 371.784C422.91 371.576 422.942 371.352 423.006 371.112C423.07 370.872 423.254 370.608 423.558 370.32C424.166 369.744 425.502 369.392 427.566 369.264C428.078 369.216 428.55 369.192 428.982 369.192C429.414 369.192 429.806 369.208 430.158 369.24V365.256C430.126 365.24 430.126 365.168 430.158 365.04C430.19 364.896 430.158 364.72 430.062 364.512C429.982 364.288 429.87 364.072 429.726 363.864C429.582 363.656 429.326 363.48 428.958 363.336C428.59 363.176 428.11 363.096 427.518 363.096C426.926 363.096 426.23 363.208 425.43 363.432C424.646 363.64 424.07 363.848 423.702 364.056L423.606 363.888C425.03 363.232 426.478 362.904 427.95 362.904C429.598 362.904 430.686 363.2 431.214 363.792C431.63 364.256 431.838 364.744 431.838 365.256V373.296C431.838 373.76 431.926 374.12 432.102 374.376C432.294 374.616 432.486 374.744 432.678 374.76L432.942 374.808H433.686V375H432.942ZM426.774 374.904C427.622 374.904 428.382 374.616 429.054 374.04C429.742 373.448 430.11 372.88 430.158 372.336V369.432C429.726 369.4 429.286 369.384 428.838 369.384C428.406 369.384 427.974 369.408 427.542 369.456C426.326 369.6 425.534 369.872 425.166 370.272C424.798 370.672 424.614 371.224 424.614 371.928C424.614 372.056 424.622 372.2 424.638 372.36C424.782 374.056 425.494 374.904 426.774 374.904ZM443.136 363.144L443.28 363C443.344 363.032 443.424 363.128 443.52 363.288C443.632 363.448 443.696 363.592 443.712 363.72C443.744 363.848 443.76 363.968 443.76 364.08C443.76 364.512 443.664 364.952 443.472 365.4L438.864 375H438.624L434.16 363H435.84L439.512 372.936L443.232 365.4C443.424 365.064 443.52 364.664 443.52 364.2C443.52 363.736 443.392 363.384 443.136 363.144ZM454.997 375C453.909 375 453.165 374.792 452.765 374.376C452.397 374.024 452.213 373.72 452.213 373.464V372.96C451.429 374.384 450.173 375.096 448.445 375.096C446.429 375.096 445.285 374.184 445.013 372.36C444.981 372.168 444.965 371.976 444.965 371.784C444.965 371.576 444.997 371.352 445.061 371.112C445.125 370.872 445.309 370.608 445.613 370.32C446.221 369.744 447.557 369.392 449.621 369.264C450.133 369.216 450.605 369.192 451.037 369.192C451.469 369.192 451.861 369.208 452.213 369.24V365.256C452.181 365.24 452.181 365.168 452.213 365.04C452.245 364.896 452.213 364.72 452.117 364.512C452.037 364.288 451.925 364.072 451.781 363.864C451.637 363.656 451.381 363.48 451.013 363.336C450.645 363.176 450.165 363.096 449.573 363.096C448.981 363.096 448.285 363.208 447.485 363.432C446.701 363.64 446.125 363.848 445.757 364.056L445.661 363.888C447.085 363.232 448.533 362.904 450.005 362.904C451.653 362.904 452.741 363.2 453.269 363.792C453.685 364.256 453.893 364.744 453.893 365.256V373.296C453.893 373.76 453.981 374.12 454.157 374.376C454.349 374.616 454.541 374.744 454.733 374.76L454.997 374.808H455.741V375H454.997ZM448.829 374.904C449.677 374.904 450.437 374.616 451.109 374.04C451.797 373.448 452.165 372.88 452.213 372.336V369.432C451.781 369.4 451.341 369.384 450.893 369.384C450.461 369.384 450.029 369.408 449.597 369.456C448.381 369.6 447.589 369.872 447.221 370.272C446.853 370.672 446.669 371.224 446.669 371.928C446.669 372.056 446.677 372.2 446.693 372.36C446.837 374.056 447.549 374.904 448.829 374.904ZM464.942 363H466.622V365.976C466.894 365.24 467.398 364.544 468.134 363.888C468.87 363.232 469.702 362.904 470.63 362.904C473.878 362.904 475.502 364.808 475.502 368.616C475.502 372.936 473.406 375.096 469.214 375.096C468.462 375.096 467.598 374.92 466.622 374.568V381H464.942V363ZM470.606 363.096C469.614 363.096 468.718 363.528 467.918 364.392C467.118 365.24 466.686 366.008 466.622 366.696V374.352C467.598 374.72 468.454 374.904 469.19 374.904C472.278 374.904 473.822 372.8 473.822 368.592C473.822 364.928 472.75 363.096 470.606 363.096ZM482.013 364.032V363.528C481.293 363.816 480.637 364.4 480.045 365.28C479.453 366.144 479.141 366.96 479.109 367.728V375H477.429V363H479.109V366.816C479.365 365.888 479.853 365.016 480.573 364.2C481.293 363.368 482.109 362.936 483.021 362.904H483.117C483.437 362.904 483.701 363.016 483.909 363.24C484.133 363.448 484.245 363.712 484.245 364.032C484.245 364.352 484.133 364.616 483.909 364.824C483.701 365.032 483.437 365.136 483.117 365.136C482.797 365.136 482.533 365.032 482.325 364.824C482.117 364.616 482.013 364.352 482.013 364.032ZM490.781 375.096C489.101 375.096 487.733 374.616 486.677 373.656C485.621 372.696 485.093 371.216 485.093 369.216C485.093 367.216 485.637 365.664 486.725 364.56C487.829 363.456 489.221 362.904 490.901 362.904C492.597 362.904 493.973 363.384 495.029 364.344C496.085 365.304 496.613 366.784 496.613 368.784C496.613 370.784 496.061 372.336 494.957 373.44C493.869 374.544 492.477 375.096 490.781 375.096ZM490.949 363.096C489.733 363.096 488.725 363.64 487.925 364.728C487.125 365.8 486.725 367.304 486.725 369.24C486.725 371.16 487.093 372.584 487.829 373.512C488.565 374.44 489.541 374.904 490.757 374.904C491.973 374.904 492.981 374.368 493.781 373.296C494.581 372.208 494.981 370.704 494.981 368.784C494.981 366.848 494.613 365.416 493.877 364.488C493.141 363.56 492.165 363.096 490.949 363.096ZM504.139 363.096C503.003 363.096 502.051 363.64 501.283 364.728C500.531 365.816 500.155 367.32 500.155 369.24C500.155 371.16 500.499 372.584 501.187 373.512C501.891 374.44 502.811 374.904 503.947 374.904C505.371 374.904 506.635 374.664 507.739 374.184L507.811 374.352C506.675 374.848 505.347 375.096 503.827 375.096C502.307 375.096 501.043 374.616 500.035 373.656C499.027 372.696 498.523 371.216 498.523 369.216C498.523 367.216 499.051 365.664 500.107 364.56C501.163 363.456 502.507 362.904 504.139 362.904C505.051 362.904 505.891 363.112 506.659 363.528C507.443 363.944 508.019 364.576 508.387 365.424H506.851C506.611 364.64 506.243 364.056 505.747 363.672C505.267 363.288 504.731 363.096 504.139 363.096ZM511.757 372.24C511.757 373.504 512.093 374.312 512.765 374.664C513.085 374.824 513.493 374.904 513.989 374.904C514.997 374.904 515.893 374.52 516.677 373.752C517.477 372.984 517.909 372.272 517.973 371.616V363H519.653V373.296C519.653 373.76 519.741 374.12 519.917 374.376C520.109 374.616 520.301 374.744 520.493 374.76L520.757 374.808H521.501V375H520.037C519.381 375 518.877 374.856 518.525 374.568C518.189 374.28 518.013 373.992 517.997 373.704L517.973 373.296V372.264C517.685 372.952 517.173 373.6 516.437 374.208C515.701 374.8 514.893 375.096 514.013 375.096C513.149 375.096 512.437 375.016 511.877 374.856C511.333 374.68 510.941 374.44 510.701 374.136C510.285 373.64 510.077 373 510.077 372.216V363H511.757V372.24ZM527.294 364.032V363.528C526.574 363.816 525.918 364.4 525.326 365.28C524.734 366.144 524.422 366.96 524.39 367.728V375H522.71V363H524.39V366.816C524.646 365.888 525.134 365.016 525.854 364.2C526.574 363.368 527.39 362.936 528.302 362.904H528.398C528.718 362.904 528.982 363.016 529.19 363.24C529.414 363.448 529.526 363.712 529.526 364.032C529.526 364.352 529.414 364.616 529.19 364.824C528.982 365.032 528.718 365.136 528.398 365.136C528.078 365.136 527.814 365.032 527.606 364.824C527.398 364.616 527.294 364.352 527.294 364.032ZM540.52 375C539.432 375 538.688 374.792 538.288 374.376C537.92 374.024 537.736 373.72 537.736 373.464V372.96C536.952 374.384 535.696 375.096 533.968 375.096C531.952 375.096 530.808 374.184 530.536 372.36C530.504 372.168 530.488 371.976 530.488 371.784C530.488 371.576 530.52 371.352 530.584 371.112C530.648 370.872 530.832 370.608 531.136 370.32C531.744 369.744 533.08 369.392 535.144 369.264C535.656 369.216 536.128 369.192 536.56 369.192C536.992 369.192 537.384 369.208 537.736 369.24V365.256C537.704 365.24 537.704 365.168 537.736 365.04C537.768 364.896 537.736 364.72 537.64 364.512C537.56 364.288 537.448 364.072 537.304 363.864C537.16 363.656 536.904 363.48 536.536 363.336C536.168 363.176 535.688 363.096 535.096 363.096C534.504 363.096 533.808 363.208 533.008 363.432C532.224 363.64 531.648 363.848 531.28 364.056L531.184 363.888C532.608 363.232 534.056 362.904 535.528 362.904C537.176 362.904 538.264 363.2 538.792 363.792C539.208 364.256 539.416 364.744 539.416 365.256V373.296C539.416 373.76 539.504 374.12 539.68 374.376C539.872 374.616 540.064 374.744 540.256 374.76L540.52 374.808H541.264V375H540.52ZM534.352 374.904C535.2 374.904 535.96 374.616 536.632 374.04C537.32 373.448 537.688 372.88 537.736 372.336V369.432C537.304 369.4 536.864 369.384 536.416 369.384C535.984 369.384 535.552 369.408 535.12 369.456C533.904 369.6 533.112 369.872 532.744 370.272C532.376 370.672 532.192 371.224 532.192 371.928C532.192 372.056 532.2 372.2 532.216 372.36C532.36 374.056 533.072 374.904 534.352 374.904ZM552.545 375C551.889 375 551.385 374.856 551.033 374.568C550.697 374.28 550.521 373.992 550.505 373.704L550.481 373.296V365.76C550.481 364.496 550.153 363.688 549.497 363.336C549.161 363.176 548.745 363.096 548.249 363.096C547.225 363.096 546.305 363.504 545.489 364.32C544.673 365.12 544.265 365.84 544.265 366.48V375H542.585V363H544.265V365.736C544.537 365.048 545.041 364.408 545.777 363.816C546.513 363.208 547.321 362.904 548.201 362.904C549.081 362.904 549.793 362.992 550.337 363.168C550.897 363.328 551.305 363.56 551.561 363.864C551.961 364.36 552.161 365 552.161 365.784V373.296C552.161 373.76 552.249 374.12 552.425 374.376C552.617 374.616 552.809 374.744 553.001 374.76L553.265 374.808H554.009V375H552.545ZM554.983 369.432C554.983 367.352 555.487 365.744 556.495 364.608C557.503 363.472 559.015 362.904 561.031 362.904C561.975 362.904 562.927 363.144 563.887 363.624V357.024H565.567V373.296C565.567 373.76 565.655 374.12 565.831 374.376C566.023 374.616 566.215 374.744 566.407 374.76L566.671 374.808H567.415V375H565.951C565.295 375 564.791 374.856 564.439 374.568C564.103 374.28 563.927 373.992 563.911 373.704L563.887 373.296V372.912C563.583 373.472 563.079 373.968 562.375 374.4C561.671 374.832 560.839 375.048 559.879 375.048C556.615 374.968 554.983 373.096 554.983 369.432ZM559.903 374.856C560.975 374.856 561.895 374.568 562.663 373.992C563.431 373.416 563.839 372.848 563.887 372.288V363.84C562.751 363.344 561.775 363.096 560.959 363.096C559.535 363.096 558.463 363.656 557.743 364.776C557.023 365.88 556.663 367.432 556.663 369.432C556.663 373.048 557.743 374.856 559.903 374.856ZM573.82 375.096C572.14 375.096 570.772 374.616 569.716 373.656C568.66 372.696 568.132 371.216 568.132 369.216C568.132 367.216 568.676 365.664 569.764 364.56C570.868 363.456 572.26 362.904 573.94 362.904C575.636 362.904 577.012 363.384 578.068 364.344C579.124 365.304 579.652 366.784 579.652 368.784C579.652 370.784 579.1 372.336 577.996 373.44C576.908 374.544 575.516 375.096 573.82 375.096ZM573.988 363.096C572.772 363.096 571.764 363.64 570.964 364.728C570.164 365.8 569.764 367.304 569.764 369.24C569.764 371.16 570.132 372.584 570.868 373.512C571.604 374.44 572.58 374.904 573.796 374.904C575.012 374.904 576.02 374.368 576.82 373.296C577.62 372.208 578.02 370.704 578.02 368.784C578.02 366.848 577.652 365.416 576.916 364.488C576.18 363.56 575.204 363.096 573.988 363.096Z" fill="white"/>
<defs>
<radialGradient id="paint0_radial_0_1" cx="0" cy="0" r="1" gradientUnits="userSpaceOnUse" gradientTransform="translate(335.5 252.5) rotate(90) scale(55.5)">
<stop stopColor="#EDEDED"/>
<stop offset="1" stopColor="#FAFAFA"/>
</radialGradient>
</defs>
</svg>