<svg id="coqueiro" xmlns="http://www.w3.org/2000/svg" viewBox="0 0 504.72 565.92"><g id="_Group_" data-name=" Group "><path id="_Path_" data-name=" Path " d="M262.52,165.5s102.54-163.17,234-32.87C496.52,132.63,343.15,113.07,262.52,165.5Z" transform="translate(-0.04 0.01)" fill="#6dbe45"/><path id="_Path_2" data-name=" Path 2" d="M266.52,159.76c-.62.87-1.18,1.66-1.66,2.35.08.44.18,1,.31,1.77,81.2-50.39,231.35-31.25,231.35-31.25l-1.82-1.78c-2.14-1-4.31-2.12-6.61-3.07C377.18,82,280.52,148.4,266.52,159.76Z" transform="translate(-0.04 0.01)" fill="#fff"/><path id="_Path_3" data-name=" Path 3" d="M258.24,171.37S95.65,186.05,52.8,250.61C52.8,250.61,91.52,82.55,258.24,171.37Z" transform="translate(-0.04 0.01)" fill="#6dbe45"/><path id="_Path_4" data-name=" Path 4" d="M254.71,165.5S210.11-24.67,8.2,81C8.2,81,167.85,79.81,254.71,165.5Z" transform="translate(-0.04 0.01)" fill="#6dbe45"/><path id="_Path_5" data-name=" Path 5" d="M258.24,171.37s201.9-51.65,190.17,160.83C448.41,332.2,384.62,196.81,258.24,171.37Z" transform="translate(-0.04 0.01)" fill="#6dbe45"/><path id="_Path_6" data-name=" Path 6" d="M296.52,174.48c-25.7.66-38.31-3.11-38.31-3.11,126.41,25.44,190.2,160.83,190.2,160.83.52-9.59-6.7-23.46-7-32C426.22,272.7,390.39,190.42,296.52,174.48Z" transform="translate(-0.04 0.01)" fill="#fff"/><path id="_Path_7" data-name=" Path 7" d="M254.71,165.5S212.45,27.77,361.93,8.2C361.93,8.2,278.19,63.77,254.71,165.5Z" transform="translate(-0.04 0.01)" fill="#6dbe45"/><path id="_Path_8" data-name=" Path 8" d="M254.71,165.5S124.52,339.32,124.52,557.66h78.54S164.81,460,254.71,165.5Z" transform="translate(-0.04 0.01)" fill="#f68e49"/><path id="_Path_9" data-name=" Path 9" d="M254.71,165.5s-3.71,5-9.88,14.25c-94.84,239.66-67,377.91-67,377.91h25.18S164.81,460,254.71,165.5Z" transform="translate(-0.04 0.01)" fill="#fff"/><path id="_Compound_Path_" data-name=" Compound Path " d="M52.8,258.81a8,8,0,0,1-3.23-.67,8.18,8.18,0,0,1-4.75-9.37c.69-3,17.76-74.43,77.18-101.49,38.81-17.67,85.94-12,140.09,16.86a8.2,8.2,0,0,1-3.12,15.4c-1.58.14-159.16,15.07-199.33,75.6A8.21,8.21,0,0,1,52.8,258.81ZM169.68,153.66a97.45,97.45,0,0,0-40.88,8.55c-27.2,12.38-44.49,36.23-54.83,56.3,44.55-31.26,115.88-45.79,155.29-51.75Q197.1,153.68,169.68,153.66Z" transform="translate(-0.04 0.01)" fill="#4a4742"/><path id="_Compound_Path_2" data-name=" Compound Path 2" d="M254.72,173.7a8.24,8.24,0,0,1-5.77-2.36C165.52,89,9.81,89.21,8.26,89.15A8.19,8.19,0,0,1,4.4,73.72C71.7,38.5,129.56,31.5,176.4,52.91c66.87,30.6,85.58,107.46,86.35,110.72a8.19,8.19,0,0,1-6.11,9.85,8.07,8.07,0,0,1-1.89.22ZM41.43,74.46a525.74,525.74,0,0,1,59.09,8.62c39.63,8.13,92.42,24.27,135.72,56-10.91-23.36-31.48-55.21-66.84-71.34C134.23,51.72,91.28,54,41.43,74.46Z" transform="translate(-0.04 0.01)" fill="#4a4742"/><path id="_Compound_Path_3" data-name=" Compound Path 3" d="M262.52,173.7a8.19,8.19,0,0,1-6.92-12.55c2-3.18,49.73-77.9,123.68-86.4,41.91-4.8,83.3,12.7,123,52.07a8.2,8.2,0,0,1-6.81,14C494,140.63,344.1,122.26,267,172.43A8.09,8.09,0,0,1,262.52,173.7ZM392.7,90.37a101.07,101.07,0,0,0-11.54.66c-38.26,4.4-69.43,29.79-89,50.58,61.78-23.56,140.79-22.11,180.49-19.4C446.22,101,419.44,90.37,392.7,90.37Z" transform="translate(-0.04 0.01)" fill="#4a4742"/><path id="_Compound_Path_4" data-name=" Compound Path 4" d="M448.4,340.39a8.19,8.19,0,0,1-7.41-4.7c-.16-.33-16-33.59-46.8-69.38-28.07-32.66-74.73-74.25-137.57-86.9a8.2,8.2,0,0,1-.42-16,230.82,230.82,0,0,1,52.32-5.76h1.07c40.08.18,74.23,10.94,98.77,31.1,35.67,29.3,51.91,77.72,48.25,143.9a8.19,8.19,0,0,1-6.61,7.59A7.17,7.17,0,0,1,448.4,340.39ZM297,174.39c39.76,15.73,77.23,43.45,109.94,81.6a389.58,389.58,0,0,1,33.42,45.34c-2.32-45.1-16.54-78.63-42.43-99.9-30.48-25.05-71.6-28.57-100.93-27.05Z" transform="translate(-0.04 0.01)" fill="#4a4742"/><path id="_Compound_Path_5" data-name=" Compound Path 5" d="M254.71,173.7a8.21,8.21,0,0,1-7.84-5.79c-.78-2.57-19-63.57,12.52-112.53C279,24.93,313.11,6.32,360.86.07a8.2,8.2,0,0,1,5.6,15c-.8.54-81.33,55.13-103.76,152.32a8.2,8.2,0,0,1-7.7,6.35ZM330.3,23.42c-25.78,8.23-44.89,21.86-57.06,40.73-13.54,21-16.34,45.28-15.7,64.53C276.68,79.7,307.85,44.29,330.3,23.42Z" transform="translate(-0.04 0.01)" fill="#4a4742"/><path id="_Compound_Path_6" data-name=" Compound Path 6" d="M203.06,565.86H124.52a8.21,8.21,0,0,1-8.2-8.2c0-114.27,35.81-216.09,65.85-281.38,32.54-70.73,64.63-113.89,66-115.69a8.2,8.2,0,0,1,14.35,7.31c-25.21,82.7-56,202.25-59.09,302.25-1.87,59.75,7.19,84.36,7.28,84.6A8.22,8.22,0,0,1,206,565.37a8.14,8.14,0,0,1-2.89.54Zm-70.27-16.4h59.5c-6.77-30.54-17.77-126.54,38.74-331.83-10.32,17.77-22.26,40-34.15,65.9-28.54,62.15-62.44,158.12-64.09,265.93Z" transform="translate(-0.04 0.01)" fill="#4a4742"/></g></svg>