<svg width="70" height="28" viewBox="0 0 70 28" fill="none" xmlns="http://www.w3.org/2000/svg">
<path d="M33.9003 15.6825C33.9003 14.9534 34.023 14.2859 34.2684 13.6801C34.5195 13.0688 34.8619 12.5471 35.2956 12.1152C36.2031 11.2122 37.3473 10.7607 38.7284 10.7607C40.2751 10.7607 41.4735 11.2122 42.3239 12.1152C43.1457 12.9846 43.5566 14.1793 43.5566 15.6994C43.5566 17.1689 43.0915 18.3692 42.1612 19.3003C41.2538 20.2146 40.1095 20.6717 38.7284 20.6717C37.2731 20.6717 36.1032 20.2033 35.2186 19.2666C34.3397 18.3524 33.9003 17.1577 33.9003 15.6825ZM36.6482 13.5455C36.4371 13.854 36.283 14.2074 36.1859 14.6056C36.0889 14.9982 36.0404 15.3993 36.0404 15.8087C36.0404 16.2126 36.0946 16.6024 36.2031 16.9782C36.3172 17.3484 36.4856 17.6793 36.7081 17.971C37.1989 18.6104 37.8838 18.9301 38.7627 18.9301C39.6587 18.9301 40.3378 18.616 40.8001 17.9878C41.211 17.4381 41.4165 16.6893 41.4165 15.7414C41.4165 14.3224 40.9428 13.3436 39.9954 12.8051C39.6473 12.6088 39.225 12.5107 38.7284 12.5107C38.2376 12.5107 37.821 12.606 37.4786 12.7967C37.1419 12.9818 36.8651 13.2314 36.6482 13.5455Z" fill="#464646"/>
<path d="M45.9279 11.5768C45.9279 11.1729 46.1077 10.971 46.4672 10.971H46.9295C47.2434 10.971 47.4659 11.1056 47.5972 11.3748C47.7855 11.7675 47.9225 12.3087 48.0081 12.9986C48.0081 13.0099 48.011 13.0155 48.0167 13.0155C48.0281 13.0155 48.0481 12.9201 48.0766 12.7294C48.1051 12.5387 48.1879 12.3059 48.3249 12.0311C48.4618 11.7506 48.6302 11.5151 48.8299 11.3244C49.2351 10.9486 49.7316 10.7607 50.3195 10.7607C50.9758 10.7607 51.4323 10.8672 51.6892 11.0804C51.809 11.1757 51.8575 11.3075 51.8347 11.4758L51.6977 12.5359C51.6635 12.822 51.5151 12.965 51.2526 12.965C51.127 12.965 50.9729 12.9397 50.7903 12.8893C50.4365 12.7995 50.1568 12.7546 49.9514 12.7546C49.7459 12.7546 49.529 12.8444 49.3008 13.0239C49.0725 13.1978 48.8756 13.4165 48.7101 13.6801C48.3734 14.2298 48.205 14.8159 48.205 15.4385V19.9061C48.205 20.0631 48.1593 20.1949 48.068 20.3015C47.9767 20.4081 47.8455 20.4614 47.6742 20.4614H46.6812C46.4986 20.4614 46.3588 20.4081 46.2618 20.3015C46.1704 20.1949 46.1248 20.0631 46.1248 19.9061V14.1092C46.1248 13.122 46.0905 12.4714 46.0221 12.1573C45.9593 11.8376 45.9279 11.6441 45.9279 11.5768Z" fill="#464646"/>
<path d="M55.8068 19.5611C56.3433 19.3031 56.9111 19.1741 57.5104 19.1741C58.1153 19.1741 58.6518 19.2302 59.1198 19.3424C59.5934 19.4489 60.0186 19.62 60.3953 19.8556C61.2399 20.3828 61.6622 21.1204 61.6622 22.0683C61.6622 23.0555 61.1829 23.8492 60.2241 24.4493C59.3737 24.9766 58.3522 25.2402 57.1594 25.2402C55.9438 25.2402 54.9308 24.9822 54.1204 24.4661C53.2472 23.9052 52.8106 23.1424 52.8106 22.1777C52.8106 21.0054 53.4412 19.8724 54.7025 18.7787C55.1933 18.358 55.7355 17.9794 56.329 17.6429C55.3988 17.5587 54.6055 17.2362 53.9492 16.6753C53.2129 16.0415 52.8448 15.2534 52.8448 14.3111C52.8448 13.2286 53.2586 12.3508 54.0861 11.6777C54.8452 11.0664 55.7497 10.7607 56.7998 10.7607C57.9298 10.7607 58.8173 11.0607 59.4622 11.6609C59.6619 11.846 59.8217 12.0563 59.9416 12.2919C59.9416 11.7759 59.8731 11.243 59.7361 10.6934C59.6049 10.1381 59.5392 9.80714 59.5392 9.70057C59.5392 9.594 59.5592 9.50987 59.5991 9.44817C59.6448 9.38086 59.6962 9.33038 59.7532 9.29673C59.8388 9.24625 59.9359 9.22101 60.0443 9.22101H60.7805C61.2542 9.22101 61.491 9.86884 61.491 11.1645C61.491 12.2022 61.2799 13.1585 60.8576 14.0335C60.869 14.1569 60.8747 14.3195 60.8747 14.5215C60.8747 14.7234 60.829 14.959 60.7377 15.2282C60.6464 15.4974 60.5237 15.7498 60.3696 15.9854C60.2212 16.2154 60.0471 16.4285 59.8474 16.6248C59.6534 16.8211 59.4451 17.0034 59.2225 17.1717C59.0056 17.34 58.7859 17.4942 58.5633 17.6344C57.3135 18.4141 56.5658 18.9021 56.3204 19.0984C56.075 19.2891 55.9038 19.4433 55.8068 19.5611ZM55.413 15.6573C55.6071 15.8199 55.8325 15.9461 56.0893 16.0359C56.3518 16.12 56.6286 16.1621 56.9197 16.1621C57.2164 16.1621 57.4875 16.12 57.7329 16.0359C57.9783 15.9461 58.1952 15.8171 58.3835 15.6489C58.783 15.2955 58.9828 14.8412 58.9828 14.2859C58.9828 13.7194 58.7602 13.2735 58.3151 12.9482C57.9213 12.6621 57.4362 12.5191 56.8598 12.5191C55.9466 12.5191 55.316 12.8528 54.9679 13.5203C54.8537 13.739 54.7967 13.9942 54.7967 14.2859C54.7967 14.572 54.8509 14.83 54.9593 15.0599C55.0677 15.2899 55.219 15.489 55.413 15.6573ZM55.0021 21.1176C54.7909 21.3532 54.6854 21.614 54.6854 21.9C54.6854 22.1861 54.7567 22.4301 54.8994 22.632C55.0421 22.8339 55.2304 23.0022 55.4644 23.1368C55.9152 23.3892 56.4802 23.5154 57.1594 23.5154C58.2323 23.5154 58.9799 23.2546 59.4023 22.733C59.5392 22.5591 59.6077 22.3404 59.6077 22.0767C59.6077 21.8131 59.5221 21.5888 59.3509 21.4037C59.1854 21.2186 58.9771 21.0755 58.726 20.9746C58.3093 20.8063 57.7672 20.7222 57.0995 20.7222C56.0722 20.7222 55.3731 20.854 55.0021 21.1176Z" fill="#464646"/>
<path d="M66.3534 18.9469C67.4492 18.9469 67.9971 18.5852 67.9971 17.8616C67.9971 17.4634 67.686 17.1268 67.064 16.852C66.8014 16.7342 66.5132 16.6248 66.1994 16.5239C65.8912 16.4229 65.5944 16.3023 65.3091 16.1621C65.0237 16.0219 64.7555 15.8704 64.5044 15.7078C64.259 15.5395 64.0449 15.3488 63.8623 15.1357C63.4857 14.6869 63.2973 14.1176 63.2973 13.4277C63.2973 12.5864 63.654 11.9189 64.3674 11.4253C65.0009 10.9822 65.7799 10.7607 66.7044 10.7607C67.6975 10.7607 68.5278 10.9514 69.1956 11.3328C69.4238 11.4674 69.538 11.6216 69.538 11.7955C69.538 12.0423 69.4695 12.3143 69.3325 12.6116C69.2013 12.9033 69.0443 13.0491 68.8617 13.0491C68.6848 13.0491 68.5221 13.0127 68.3737 12.9397C68.2311 12.8668 68.0998 12.8051 67.98 12.7546C67.8658 12.6986 67.7431 12.6537 67.6119 12.62C67.3265 12.5359 67.0611 12.4938 66.8157 12.4938C66.576 12.4938 66.382 12.5107 66.2336 12.5443C66.0852 12.578 65.9511 12.6313 65.8313 12.7042C65.5402 12.878 65.3947 13.0912 65.3947 13.3436C65.3947 13.596 65.4517 13.7895 65.5659 13.9241C65.6857 14.0587 65.8484 14.1821 66.0538 14.2943C66.2593 14.4065 66.5047 14.5187 66.79 14.6308L67.7146 15.0094C68.4622 15.3292 68.9673 15.618 69.2298 15.876C69.7434 16.3921 70.0003 16.9894 70.0003 17.6681C70.0003 18.5207 69.7035 19.2218 69.11 19.7715C68.4536 20.3716 67.5205 20.6717 66.3106 20.6717C65.0836 20.6717 64.1619 20.4389 63.5456 19.9734C63.2431 19.749 63.0919 19.5471 63.0919 19.3676C63.0919 19.1881 63.1233 19.0283 63.186 18.888C63.2545 18.7422 63.3401 18.5739 63.4428 18.3832C63.5513 18.1869 63.694 18.0888 63.8709 18.0888C64.0535 18.0888 64.2447 18.1701 64.4444 18.3328C64.6499 18.4898 64.9295 18.6328 65.2834 18.7618C65.6372 18.8852 65.9939 18.9469 66.3534 18.9469Z" fill="#464646"/>
<path d="M2.78901 0.0994393L2.77629 1.56313L2.14573 0L1.16891 0.368902L1.79948 1.93209L0.765381 0.863625L0 1.55729L2.47998 4.1547L3.814 3.58394L3.83766 0.107874L2.78901 0.0994393Z" fill="#BFE2DA"/>
<path d="M8.13943 16.2535C7.87115 16.3548 7.57364 16.3566 7.30409 16.2585C7.03454 16.1604 6.81198 15.9694 6.67919 15.7221L1.56704 6.19354C1.41466 5.90965 1.32574 5.5979 1.30606 5.27857C1.28638 4.95923 1.33638 4.63947 1.45281 4.34006C1.56924 4.04066 1.7495 3.76832 1.98185 3.54075C2.21421 3.31319 2.49347 3.13549 2.80146 3.01922C3.10946 2.90294 3.43929 2.8507 3.76953 2.86588C4.09976 2.88106 4.423 2.96333 4.71821 3.10733C5.01343 3.25133 5.27401 3.45385 5.48303 3.7017C5.69204 3.94956 5.8448 4.23721 5.93138 4.54594L5.93662 4.56434L6.2132 5.54922L6.48912 6.53156L6.76571 7.51644L7.04229 8.50069L7.31887 9.48557L7.59414 10.4654L7.87072 11.4509L8.15385 12.458L8.43043 13.4416L8.84137 14.9053C8.91667 15.1742 8.88667 15.4606 8.75712 15.7094C8.62757 15.9583 8.4076 16.152 8.13943 16.2535Z" fill="#FDCD79"/>
<path d="M6.21319 5.54946L4.13556 6.32886C4.00597 6.37772 3.86164 6.37477 3.7343 6.32066C3.60696 6.26654 3.50706 6.1657 3.45656 6.04031C3.40607 5.91492 3.40912 5.77526 3.46504 5.65205C3.52097 5.52883 3.62518 5.43216 3.75477 5.3833L5.93661 4.56458L6.21319 5.54946Z" fill="#FF7070"/>
<path d="M6.7662 7.51677L4.89895 8.21945C4.76936 8.26839 4.62499 8.26552 4.49759 8.21147C4.37019 8.15741 4.2702 8.0566 4.21962 7.93121C4.16904 7.80582 4.172 7.66612 4.22787 7.54285C4.28373 7.41958 4.38792 7.32283 4.5175 7.27388L6.48962 6.53189L6.7662 7.51677Z" fill="#FF7070"/>
<path d="M7.31901 9.48592L5.66083 10.11C5.59667 10.1341 5.52821 10.1459 5.45936 10.1445C5.39051 10.1431 5.32262 10.1285 5.25957 10.1017C5.19652 10.075 5.13954 10.0364 5.09188 9.9883C5.04423 9.9402 5.00683 9.88349 4.98183 9.8214C4.95683 9.75932 4.94471 9.69307 4.94616 9.62645C4.94762 9.55983 4.96262 9.49414 4.99031 9.43313C5.018 9.37213 5.05784 9.31699 5.10755 9.27088C5.15726 9.22477 5.21588 9.18858 5.28004 9.16439L7.04243 8.50104L7.31901 9.48592Z" fill="#FF7070"/>
<path d="M7.8705 11.4506L6.42336 11.9998C6.29378 12.0488 6.1494 12.0459 6.02201 11.9918C5.89461 11.9378 5.79462 11.837 5.74403 11.7116C5.69345 11.5862 5.69642 11.4465 5.75228 11.3232C5.80815 11.2 5.91233 11.1032 6.04192 11.0543L7.59392 10.4651L7.8705 11.4506Z" fill="#FF7070"/>
<path d="M8.43035 13.4417L7.18573 13.8907C7.05615 13.9395 6.91181 13.9366 6.78447 13.8825C6.65713 13.8284 6.55723 13.7275 6.50673 13.6021C6.45624 13.4767 6.45929 13.3371 6.51521 13.2139C6.57114 13.0906 6.67536 12.994 6.80494 12.9451L8.15377 12.4581L8.43035 13.4417Z" fill="#FF7070"/>
<path d="M14.3102 6.94148C14.0939 6.79912 13.9252 6.59878 13.8248 6.36502C13.7245 6.13127 13.6968 5.87425 13.7452 5.62549C13.8042 5.34084 13.8038 5.04766 13.7442 4.76314C13.6845 4.47863 13.5668 4.2085 13.3978 3.9686C13.2288 3.7287 13.012 3.52386 12.7602 3.36609C12.5083 3.20832 12.2264 3.1008 11.9311 3.04983C11.6823 3.00971 11.4497 2.90394 11.259 2.74417C11.0683 2.5844 10.9269 2.37683 10.8502 2.14429C10.8137 2.02931 10.7675 1.91741 10.7121 1.8097C10.4518 1.30513 9.99958 0.91776 9.45042 0.728896C8.90125 0.540033 8.29783 0.564363 7.76681 0.796779C7.23579 1.0292 6.81847 1.45163 6.60244 1.9754C6.38642 2.49917 6.38848 3.08355 6.60821 3.60588C6.63442 3.66812 6.66317 3.72851 6.69446 3.78707C6.93165 4.23099 6.86191 4.7632 6.56423 5.17142C6.39172 5.4076 6.2695 5.67464 6.20466 5.95697C6.13982 6.2393 6.13368 6.53129 6.18658 6.81594C6.23948 7.10059 6.35037 7.37221 6.51279 7.615C6.67521 7.85779 6.88593 8.06689 7.13266 8.23013C7.34684 8.37547 7.51254 8.57811 7.60945 8.81323C7.70636 9.04835 7.73026 9.30572 7.67822 9.55379C7.57079 10.0947 7.67893 10.6549 7.9809 11.1219C8.28287 11.5888 8.75629 11.9278 9.30602 12.0709C9.85575 12.2139 10.4411 12.1503 10.9443 11.8928C11.4475 11.6353 11.8314 11.2031 12.0188 10.683C12.5284 10.9286 13.1151 10.9784 13.661 10.8225C14.207 10.6667 14.6718 10.3167 14.962 9.84282C15.2522 9.36897 15.3463 8.80641 15.2254 8.26817C15.1045 7.72994 14.7776 7.25591 14.3103 6.94135L14.3102 6.94148Z" fill="#2A9F85"/>
<path d="M13.8546 13.7009L12.0486 9.408L13.0317 8.00614L12.164 7.43639L11.5734 8.27846L10.774 6.37839L11.7572 4.97654L10.8894 4.40679L10.2988 5.24886L9.39363 3.09727L8.42245 3.47981L9.32763 5.63139L8.2972 5.42782L8.0874 6.42202L9.80286 6.76093L10.6022 8.66106L9.5717 8.45742L9.3619 9.45163L11.0774 9.79053L12.8834 14.0834L13.8546 13.7009Z" fill="#55B29D"/>
<path d="M19.4192 8.68327C19.2744 8.4725 19.1962 8.2254 19.1943 7.97228C19.1925 7.71915 19.267 7.47101 19.4088 7.25826C19.5743 7.01614 19.6882 6.74447 19.7438 6.45918C19.7994 6.17389 19.7956 5.88073 19.7326 5.59689C19.6695 5.31306 19.5486 5.04426 19.3767 4.80626C19.2049 4.56826 18.9857 4.36585 18.732 4.21091C18.5172 4.08295 18.343 3.90014 18.2287 3.6826C18.1143 3.46505 18.0642 3.2212 18.0838 2.97787C18.0947 2.85802 18.0955 2.73751 18.0862 2.61753C18.0418 2.05518 17.7739 1.53135 17.3389 1.15601C16.9038 0.780672 16.3354 0.583024 15.753 0.604558C15.1705 0.626092 14.6194 0.865134 14.2152 1.2715C13.811 1.67786 13.5852 2.21995 13.5853 2.78394C13.5853 2.85108 13.5884 2.9175 13.5946 2.9832C13.6414 3.48077 13.3693 3.94842 12.9345 4.21788C12.6827 4.37371 12.4655 4.57644 12.2954 4.81429C12.1253 5.05213 12.0059 5.32033 11.944 5.60327C11.882 5.88622 11.8789 6.17825 11.9347 6.46238C11.9906 6.74651 12.1042 7.01705 12.2692 7.25826C12.4109 7.47101 12.4854 7.71915 12.4836 7.97228C12.4817 8.2254 12.4036 8.4725 12.2587 8.68327C11.9484 9.14508 11.8303 9.70341 11.928 10.246C12.0257 10.7887 12.3321 11.2754 12.7856 11.6084C13.239 11.9415 13.8059 12.0961 14.3723 12.0412C14.9388 11.9863 15.4627 11.7261 15.839 11.3127C16.2153 11.7258 16.7392 11.9859 17.3055 12.0406C17.8718 12.0954 18.4385 11.9407 18.8919 11.6078C19.3452 11.2749 19.6515 10.7883 19.7494 10.2458C19.8472 9.7033 19.7293 9.14508 19.4192 8.68327Z" fill="#55B29D"/>
<path d="M17.2387 8.35899L16.3636 8.92347V6.87196L17.8204 5.93224L17.2387 5.08795L16.3636 5.6525V3.32944H15.315V5.6525L14.4399 5.08795L13.8583 5.93224L15.315 6.87196V8.92347L14.4399 8.35899L13.8583 9.20327L15.315 10.1429V14.778H16.3636V10.1429L17.8204 9.20327L17.2387 8.35899Z" fill="#BFE2DA"/>
<path d="M22.9287 14.8086L16.6368 12.7792L20.1013 2.72239C20.3139 2.10522 20.7218 1.56842 21.2673 1.18804C21.8127 0.807653 22.468 0.602964 23.1403 0.602966H23.378C24.1054 0.602961 24.8111 0.842495 25.3792 1.28217C25.8908 1.67824 26.2646 2.21661 26.4502 2.82467C26.6358 3.43272 26.6242 4.08122 26.417 4.68271L22.9287 14.8086Z" fill="#FCAC1F"/>
<path d="M21.2576 4.16975L24.4023 3.66364L24.5742 4.66412L21.4295 5.17023L21.2576 4.16975Z" fill="#FDCD79"/>
<path d="M20.2083 7.21257L23.3529 6.70646L23.5249 7.70694L20.3802 8.21305L20.2083 7.21257Z" fill="#FDCD79"/>
<path d="M18.7339 9.7359V28.0003H3.00415V9.7359L4.57712 10.7506L6.15009 9.7359L7.72307 10.7506L9.29604 9.7359L10.869 10.7506L12.442 9.7359L14.015 10.7506L15.5879 9.7359L17.1609 10.7506L18.7339 9.7359Z" fill="#FCAC1F"/>
<path d="M18.7339 13.9383V27.9993H3.00415V24.9216C8.78023 23.0476 14.5019 19.6256 18.7339 13.9383Z" fill="#FCAC1F"/>
<path d="M25.0254 9.7359V28.0003H18.7335V9.7359L20.3065 10.7506L21.3551 10.0739L21.8795 9.7359L22.4038 10.0739L23.4524 10.7506L25.0254 9.7359Z" fill="#FDCD79"/>
<path d="M25.0254 27.2824V28.0003H24.2835L21.8795 25.6735L19.4754 28.0003H18.7335V27.2824L21.3551 24.7463V10.0739L21.8795 9.7359L22.4038 10.0739V24.7463L25.0254 27.2824Z" fill="#FCAC1F"/>
</svg>
