<svg id="filtro" xmlns="http://www.w3.org/2000/svg" viewBox="0 0 274.53 437.19"><g id="_Group_" data-name=" Group "><g id="_Group_2" data-name=" Group 2"><rect id="_Rectangle_" data-name=" Rectangle " x="40.88" y="301.73" width="172.75" height="128.07" fill="#f9a333"/></g><rect id="_Rectangle_2" data-name=" Rectangle 2" x="40.88" y="396.14" width="192.77" height="33.66" fill="#fff"/><polygon id="_Path_" data-name=" Path " points="233.65 301.73 40.88 301.73 8.26 7.39 266.27 7.39 233.65 301.73" fill="#fff"/><polygon id="_Path_2" data-name=" Path 2" points="210.81 301.73 37.57 301.73 8.26 7.39 240.13 7.39 210.81 301.73" fill="#f9a333"/><polygon id="_Path_3" data-name=" Path 3" points="263.74 30.25 266.27 7.39 8.26 7.39 10.79 30.25 263.74 30.25" fill="#fff"/><line id="_Path_4" data-name=" Path 4" x1="41.17" y1="399.83" x2="233.36" y2="399.83" fill="none"/><path id="_Path_5" data-name=" Path 5" d="M177.19,399.75a40.1,40.1,0,0,0-79.85,0Z" fill="#fff"/><line id="_Path_6" data-name=" Path 6" x1="12.93" y1="34.15" x2="264.66" y2="34.15" fill="none"/><path id="_Compound_Path_" data-name=" Compound Path " d="M241,437.19H33.49V294.34H241ZM48.28,422.41h178V309.12h-178Z" fill="#4a4742"/><path id="_Compound_Path_2" data-name=" Compound Path 2" d="M240.28,309.12h-206L0,0H274.53ZM47.5,294.34H227L258,14.78H16.51Z" fill="#4a4742"/><rect id="_Path_7" data-name=" Path 7" x="41.17" y="392.44" width="192.19" height="14.78" fill="#4a4742"/><path id="_Compound_Path_3" data-name=" Compound Path 3" d="M185.28,407.19h-96l.74-8.07a47.49,47.49,0,0,1,94.57,0Zm-78.8-14.83h61.57a32.74,32.74,0,0,0-61.57,0Z" fill="#4a4742"/><rect id="_Path_8" data-name=" Path 8" x="12.94" y="26.76" width="251.72" height="14.78" fill="#4a4742"/><circle id="_Path_9" data-name=" Path 9" cx="137.5" cy="164.88" r="36.45" fill="#fff"/><g id="_Group_3" data-name=" Group 3"><path id="_Path_10" data-name=" Path 10" d="M137.33,119.47a3.07,3.07,0,0,1-3.05-3.08V101.25a3.08,3.08,0,1,1,6.15-.35,2,2,0,0,1,0,.35v15.14a3.06,3.06,0,0,1-3.06,3.08Z" fill="#fffefd"/><path id="_Path_11" data-name=" Path 11" d="M137.33,231.44a3.06,3.06,0,0,1-3.08-3.06V213.19a3.08,3.08,0,0,1,6.15-.35,2,2,0,0,1,0,.35v15.13a3.06,3.06,0,0,1-3,3.12Z" fill="#fffefd"/></g><g id="_Group_4" data-name=" Group 4"><path id="_Path_12" data-name=" Path 12" d="M113.12,126a3.07,3.07,0,0,1-2.67-1.54l-7.57-13.1a3.08,3.08,0,0,1,5.34-3.08l7.56,13.1a3.08,3.08,0,0,1-1.13,4.21h0A3,3,0,0,1,113.12,126Z" fill="#fffefd"/><path id="_Path_13" data-name=" Path 13" d="M169.11,222.93a3.09,3.09,0,0,1-2.67-1.54l-7.57-13.11a3.08,3.08,0,0,1,5.33-3.08l7.57,13.11a3.08,3.08,0,0,1-1.13,4.2A3,3,0,0,1,169.11,222.93Z" fill="#fffefd"/></g><g id="_Group_5" data-name=" Group 5"><path id="_Path_14" data-name=" Path 14" d="M95.39,143.68a3.1,3.1,0,0,1-1.54-.42l-13.1-7.56a3.08,3.08,0,1,1,3.08-5.34l13.1,7.57a3.08,3.08,0,0,1-1.54,5.75Z" fill="#fffefd"/><path id="_Path_15" data-name=" Path 15" d="M192.36,199.66a3.09,3.09,0,0,1-1.54-.41l-13.1-7.56a3.08,3.08,0,0,1,3.08-5.34l13.1,7.57a3.08,3.08,0,0,1-1.54,5.74Z" fill="#fffefd"/></g><g id="_Group_6" data-name=" Group 6"><path id="_Path_16" data-name=" Path 16" d="M88.9,167.89H73.77a3.08,3.08,0,0,1,0-6.16H88.9a3.08,3.08,0,0,1,0,6.16Z" fill="#fffefd"/><path id="_Path_17" data-name=" Path 17" d="M200.88,167.89H185.75a3.08,3.08,0,0,1,0-6.16h15.13a3.08,3.08,0,1,1,0,6.16Z" fill="#fffefd"/></g><g id="_Group_7" data-name=" Group 7"><path id="_Path_18" data-name=" Path 18" d="M82.28,199.66a3.08,3.08,0,0,1-1.54-5.74l13.1-7.57a3.08,3.08,0,0,1,3.08,5.34l-13.1,7.56A3.09,3.09,0,0,1,82.28,199.66Z" fill="#fffefd"/><path id="_Path_19" data-name=" Path 19" d="M179.28,143.68a3.08,3.08,0,0,1-1.54-5.75l13.1-7.57a3.08,3.08,0,0,1,3.08,5.34l-13.1,7.56A3.1,3.1,0,0,1,179.28,143.68Z" fill="#fffefd"/></g><g id="_Group_8" data-name=" Group 8"><path id="_Path_20" data-name=" Path 20" d="M105.55,222.93a3.1,3.1,0,0,1-3.08-3.1,3.2,3.2,0,0,1,.41-1.52l7.57-13.12a3.08,3.08,0,0,1,5.33,3.08l-7.56,13.11A3.12,3.12,0,0,1,105.55,222.93Z" fill="#fffefd"/><path id="_Path_21" data-name=" Path 21" d="M161.53,126a3,3,0,0,1-1.53-.41,3.09,3.09,0,0,1-1.13-4.21h0l7.57-13.1a3.08,3.08,0,1,1,5.44,2.89l-.11.19-7.57,13.1A3.07,3.07,0,0,1,161.53,126Z" fill="#fffefd"/></g></g></svg>